<svg width="98" height="101" viewBox="0 0 98 101" fill="none" xmlns="http://www.w3.org/2000/svg">
<path d="M62.9853 22.2188C62.8937 22.1969 62.9012 22.0761 62.8719 21.9921C62.4618 21.985 62.0716 21.9978 61.7762 22.1053C61.6774 22.0656 61.6527 21.952 61.6629 21.8031C61.2989 21.8171 61.0496 21.9456 60.7183 21.9921C60.6598 21.9372 60.639 21.8447 60.6427 21.7276C60.2454 21.7206 60.0241 21.8898 59.7736 22.0298C59.6562 22.0213 59.7097 21.8418 59.698 21.7276C59.2862 21.7313 59.0718 21.9326 58.829 22.1053C58.7399 22.0308 58.7766 21.8304 58.7157 21.7276C58.3568 21.7969 58.1805 22.0488 57.9222 22.2188C57.8039 22.1986 57.7861 22.0778 57.771 21.9543C57.4559 22.0421 57.2731 22.2624 57.0532 22.4455C56.8775 22.4702 56.9214 22.2751 56.8265 22.2189C56.5265 22.3093 56.451 22.6243 56.1463 22.7101C56.04 22.7155 56.0374 22.6174 56.033 22.5211C55.6885 22.6804 55.4339 22.9296 55.164 23.1635C55.0456 23.1812 55.0574 23.0685 55.0129 23.0123C54.7374 23.1776 54.5021 23.3833 54.2949 23.6168C54.2203 23.5907 54.1942 23.516 54.1817 23.4279C53.8688 23.6062 53.6618 23.8904 53.3504 24.0702C53.2782 24.0542 53.1879 24.0565 53.1993 23.9569C52.4362 24.7052 51.2771 25.0574 50.1387 25.4305C50.2396 25.0816 50.586 24.8641 50.8567 24.637C51.7734 23.868 52.7889 23.0131 54.1817 22.6721C54.2098 22.5558 54.0779 22.5995 54.1061 22.4833C54.3923 22.1398 54.9862 22.1039 55.4663 21.9543C55.5547 21.8549 55.3583 21.8111 55.353 21.6898C55.6926 21.5003 56.1716 21.4505 56.5243 21.2741C56.5535 21.127 56.3846 21.0782 56.4865 20.9718C56.9562 20.8495 57.403 20.7043 57.7711 20.4807C57.7345 20.3284 57.5588 20.3153 57.5445 20.1406C57.9572 20.0495 58.3809 19.9694 58.7159 19.8006C58.6753 19.627 58.5097 19.5785 58.4892 19.3849C58.942 19.3088 59.3228 19.1608 59.6604 18.9694C59.6455 18.7828 59.4721 18.7546 59.4337 18.5915C59.7327 18.4244 60.0875 18.3133 60.4917 18.2514C60.4588 18.1053 60.5549 18.0879 60.605 18.0247C60.5105 17.8673 60.2852 17.8406 60.2649 17.6091C60.6633 17.4658 61.0259 17.2869 61.2474 16.9666C61.2441 16.7684 60.9919 16.819 60.9827 16.6267C61.3442 16.4213 61.7103 16.2206 61.9652 15.9087C61.939 15.7461 61.7427 15.7534 61.7006 15.6064C61.9495 15.2634 62.3148 15.0368 62.5696 14.6996C62.5354 14.5449 62.3582 14.5333 62.3052 14.3973C62.5606 13.947 63.2769 13.5985 63.0987 12.9616C63.426 12.4326 63.7739 11.924 64.0432 11.3369C64.1446 11.2115 64.2871 11.1274 64.2322 10.8457C63.4807 11.253 62.8448 11.7758 62.0784 12.1681C61.9349 12.1606 61.9351 12.0092 61.7762 12.0169C61.3497 12.258 60.9543 12.53 60.6427 12.886C60.4552 12.8846 60.4114 12.7394 60.3404 12.6215C59.9348 12.8331 59.714 13.2293 59.3959 13.5283C59.2819 13.4534 59.1704 13.3758 59.1313 13.2261C58.7821 13.4687 58.5322 13.8107 58.3757 14.2462C58.1738 14.2338 58.1973 13.9962 58.0356 13.944C57.7225 14.185 57.4812 14.498 57.3932 14.9642C57.1433 14.9495 57.1317 14.6968 56.9399 14.6241C56.6837 14.9218 56.5276 15.3201 56.4488 15.7954C56.2394 15.803 56.223 15.618 56.0708 15.5686C55.7786 15.8178 55.6658 16.2468 55.6175 16.74C55.392 16.7261 55.3673 16.5116 55.1641 16.4755C55.0461 16.8487 54.8896 17.1833 54.8618 17.6467C54.6223 17.6848 54.6717 17.4339 54.4839 17.4202C54.2893 17.83 54.0946 18.24 54.0306 18.7804C53.8663 18.7933 53.8197 18.6889 53.6905 18.667C53.5962 19.0766 53.4116 19.3956 53.3504 19.8384C53.1588 19.8941 53.1167 19.6754 53.0104 19.7628C52.9152 20.2343 52.8012 20.6872 52.5948 21.0474C52.465 21.0639 52.383 21.0325 52.2926 21.0097C51.9272 22.8986 50.6514 23.8774 49.6854 25.1658C49.4961 25.0037 49.6589 24.7407 49.6854 24.5235C49.8915 22.8383 50.127 21.1251 50.8945 20.0272C50.7026 20.0679 50.662 19.9575 50.5922 19.8761C50.7811 19.2337 51.0929 18.7144 51.4234 18.2136C51.3308 18.155 51.1775 18.1572 51.0455 18.138C51.2014 17.5508 51.6188 17.2249 51.7257 16.5888C51.5991 16.5768 51.4875 16.5498 51.4233 16.4755C51.6749 15.8958 52.0418 15.4314 52.179 14.7373C51.9945 14.733 51.7809 14.7577 51.6501 14.6996C51.9064 14.2129 52.2703 13.8336 52.4058 13.226C52.1704 13.2472 52.0077 13.1959 51.839 13.1504C52.0528 12.6577 52.4765 12.1775 52.4814 11.6013C52.2398 11.6161 52.0833 11.5459 51.8768 11.5257C52.1337 11.0635 52.5176 10.5308 52.4814 9.90094C52.272 9.93811 52.0044 9.96344 51.8013 9.90094C51.9972 9.4781 52.2649 8.93096 52.1035 8.27628C51.927 8.31388 51.7689 8.3698 51.5367 8.35183C51.6934 7.89717 51.9448 7.19998 51.7634 6.65161C51.6569 6.70885 51.5272 6.74295 51.3477 6.72717C51.3093 6.70263 51.3087 6.64031 51.2343 6.65161C51.3127 6.10202 51.2894 5.61248 51.2723 5.02686C51.0958 5.02686 50.9195 5.02686 50.7432 5.02686C50.6639 4.11517 50.6767 3.68698 50.441 3.02432C50.2907 3.05719 50.2511 3.05719 50.1009 3.02432C49.9825 1.87053 49.6679 0.913263 49.3074 0.00157463C49.2464 -0.00903149 49.2424 0.0373373 49.1941 0.039441C48.9898 1.15764 48.7911 2.28128 48.4383 3.25108C48.319 3.30201 48.2899 3.23697 48.0983 3.28886C47.9068 3.84038 47.8059 4.48262 47.8338 5.25362C47.6493 5.24924 47.4357 5.27404 47.3048 5.21584C47.2047 5.75062 47.2415 6.33185 47.3048 6.87837C47.1708 7.02011 46.9132 6.91151 46.738 6.87837C46.6356 7.45487 46.8203 8.01551 46.9647 8.46526C46.833 8.57588 46.6209 8.52837 46.4358 8.50304C46.2785 9.14133 46.5465 9.67523 46.738 10.0899C46.5282 10.2067 46.2927 10.132 46.0201 10.1278C46.0973 10.8068 46.3081 11.2231 46.6626 11.6769C46.5801 11.8589 46.217 11.7604 46.0201 11.828C46.1651 12.4262 46.4206 12.9137 46.738 13.3393C46.5935 13.4341 46.3664 13.4463 46.1335 13.4527C46.2836 14.0204 46.5787 14.4434 46.8892 14.8507C46.8354 15.011 46.5645 14.9542 46.3602 14.9641C46.5202 15.6354 46.8702 16.1166 47.1159 16.7021C47.066 16.8034 46.8763 16.7649 46.7759 16.8154C46.9149 17.3942 47.3477 17.6793 47.4181 18.3268C47.4129 18.4348 47.2605 18.396 47.1537 18.4024C47.3804 18.9943 47.7712 19.4222 47.9472 20.0648C47.9054 20.187 47.8269 20.2722 47.6449 20.2537C48.5551 21.4575 48.6991 23.2218 48.9673 25.0901C48.9235 25.084 48.9001 25.0985 48.8918 25.128C48.3455 24.6765 47.9211 24.0455 47.4561 23.4278C46.9359 22.7369 46.3698 22.0786 46.2469 21.0097C45.613 21.1339 45.7207 20.2052 45.5291 19.7627C45.4268 19.6715 45.3947 19.8796 45.2268 19.8383C45.0868 19.462 44.97 19.0622 44.8489 18.6669C44.7147 18.6712 44.7116 18.8067 44.5467 18.7803C44.4121 18.2977 44.2737 17.819 44.0555 17.4201C43.8958 17.4493 43.9086 17.6511 43.7154 17.6467C43.6117 17.2467 43.5191 16.8355 43.3754 16.4754C43.1979 16.5247 43.1278 16.6813 42.9597 16.7399C42.8502 16.3077 42.771 15.8455 42.5064 15.5686C42.3299 15.5937 42.3013 15.7666 42.1284 15.7953C41.9749 15.382 41.8836 14.9066 41.5995 14.624C41.4217 14.6982 41.3893 14.9176 41.1838 14.9641C41.004 14.5519 40.8642 14.0998 40.4282 13.9439C40.4076 14.0996 40.304 14.1721 40.2015 14.2461C40.0022 13.8536 39.7626 13.5011 39.4458 13.226C39.3282 13.2974 39.3069 13.4649 39.1813 13.5282C38.819 13.2734 38.6204 12.855 38.2367 12.6215C38.1152 12.6889 38.1075 12.8701 37.9345 12.8859C37.574 12.5663 37.209 12.2512 36.7632 12.0168C36.6251 12.0174 36.5934 12.1243 36.4986 12.168C35.6921 11.7908 35.0652 11.2336 34.2693 10.8456C34.5637 11.6092 34.9874 12.2437 35.403 12.8859C35.2978 13.6275 35.9181 13.9186 36.2342 14.3595C36.2004 14.5148 36.0491 14.5523 35.9697 14.6618C36.1952 15.0283 36.5552 15.2604 36.8387 15.5686C36.8314 15.7628 36.5986 15.7315 36.5742 15.9087C36.8291 16.2206 37.1951 16.4213 37.5566 16.6267C37.5727 16.8443 37.2891 16.7621 37.2921 16.9666C37.5288 17.259 37.8196 17.4971 38.2745 17.5713C38.2671 17.8157 38.0779 17.8784 37.9344 17.9869C38.1936 18.3784 38.6648 18.33 39.0302 18.5915C39.0763 18.7654 38.8649 18.8771 38.9168 18.9316C39.1826 19.1821 39.5579 19.3231 40.0503 19.3471C40.0534 19.577 39.8646 19.6147 39.8237 19.8006C40.1768 19.9387 40.5142 20.0925 40.9949 20.1029C41.0025 20.3119 40.8214 20.3324 40.7683 20.4808C41.151 20.6773 41.5212 20.8865 42.0529 20.9341C42.1379 21.0799 42.0084 21.1087 42.0151 21.2742C42.3788 21.427 42.7875 21.5346 43.1865 21.6521C43.21 21.8114 42.9808 21.8433 43.0732 21.9544C43.5576 22.0871 44.0972 22.1646 44.4334 22.4456C44.4738 22.5867 44.3396 22.5533 44.3579 22.6722C46.1573 23.1524 47.2916 24.2977 48.4763 25.3927C47.4883 25.2221 46.4511 24.7732 45.6803 24.2592C45.6048 24.1331 45.4725 24.0638 45.378 23.9569C45.3275 23.9946 45.3037 24.0591 45.2269 24.0703C44.9098 23.9087 44.6659 23.6741 44.4334 23.428C44.3043 23.3996 44.3854 23.5814 44.2445 23.5413C43.9742 23.4085 43.8075 23.1722 43.5643 23.0123C43.4673 23.016 43.5103 23.1598 43.4132 23.1635C43.1092 22.9636 42.8677 22.7015 42.5441 22.5211C42.4674 22.5453 42.5192 22.6977 42.4307 22.7101C42.0964 22.6539 42.0216 22.3382 41.7506 22.2189C41.5973 22.2166 41.6825 22.453 41.5238 22.4455C41.259 22.2947 41.1059 22.0325 40.7682 21.9543C40.7692 22.0812 40.7162 22.1543 40.6548 22.2188C40.3465 22.0862 40.2049 21.7871 39.8236 21.7276C39.7639 21.8064 39.7974 21.9784 39.748 22.0676C39.4997 22.0465 39.275 21.6878 38.8411 21.7276C38.8366 21.8364 38.8617 21.9749 38.8033 22.0298C38.4911 21.9391 38.3278 21.6993 37.8965 21.7276C37.9186 21.8502 37.8709 21.9033 37.8589 21.9921C37.4996 21.9609 37.256 21.814 36.8764 21.8031C36.8983 21.951 36.844 22.0224 36.801 22.1053C36.4877 22.0157 36.1217 21.9785 35.7051 21.9921C35.6505 22.0508 35.6257 22.1394 35.5918 22.2188C34.9001 22.2376 34.388 22.2172 33.6648 22.2188C34.0641 22.6255 34.6342 22.8615 35.214 23.0879C35.2933 23.5878 35.9179 23.5425 36.3097 23.7302C36.3365 23.8703 36.2451 23.8923 36.2718 24.0324C36.5527 24.1168 36.844 24.1907 37.1786 24.2213C37.2337 24.2876 37.1553 24.4492 37.1408 24.5614C37.3763 24.6534 37.7191 24.638 38.0477 24.6369C38.1347 24.7284 38.0092 24.8204 38.0099 24.9392C38.2502 25.0808 38.6445 24.9866 38.9545 24.9769C38.9778 25.1513 38.8697 25.1944 38.8789 25.3548C39.197 25.4386 39.5231 25.2918 39.8235 25.2414C39.9093 25.2816 39.8379 25.4789 39.8613 25.5815C40.2295 25.5845 40.4891 25.4788 40.7681 25.3925C40.8766 25.4672 40.7549 25.6283 40.7681 25.7325C41.1236 25.7228 41.3501 25.584 41.6371 25.5059C41.7224 25.534 41.6519 25.7177 41.6749 25.8081C42.0122 25.8436 42.5947 25.445 42.7707 25.8081C43.0467 25.7441 43.2987 25.656 43.6019 25.6193C43.68 25.642 43.7451 25.6778 43.7152 25.8081C44.0129 25.7153 44.31 25.6219 44.622 25.5437C44.7534 25.5508 44.79 25.6529 44.8487 25.7325C46.0683 25.3052 47.8 25.6824 48.8539 25.8459C48.307 26.2585 47.6905 26.5639 46.889 26.5637C46.889 26.6142 46.889 26.6646 46.889 26.7149C46.4749 26.6785 46.3355 26.917 45.9445 26.9038C45.8954 27.1192 45.5439 27.0322 45.3777 27.1305C45.2641 27.0923 45.3108 27.2147 45.3022 27.2817C45.1887 27.332 45.0132 27.3201 44.8487 27.3194C44.7858 27.3945 44.8522 27.3675 44.8487 27.4706C44.7045 27.5919 44.2359 27.4569 44.3953 27.7729C44.2955 27.8493 44.0484 27.7786 43.9419 27.8484C43.8596 27.9274 43.9608 27.9562 43.9419 28.075C43.8078 28.1298 43.6462 28.1571 43.5263 28.2262C43.4554 28.2982 43.5487 28.2946 43.5263 28.4152C43.403 28.506 43.2337 28.5508 43.1107 28.6418C43.0832 28.745 43.1858 28.718 43.1862 28.793C43.0636 28.8971 42.9008 28.9608 42.7706 29.0575C42.7004 29.1243 42.7871 29.1678 42.8083 29.2465C42.3163 29.5856 42.1009 30.2014 41.637 30.5689C42.2152 30.3839 42.7702 30.3881 43.224 30.1155C43.3649 30.0754 43.2838 30.2572 43.413 30.2288C43.6775 29.9179 44.0704 30.187 44.282 29.8132C44.5031 29.9704 44.6452 29.7677 44.7732 29.6243C44.9143 29.5839 44.8809 29.718 44.9999 29.6999C45.0813 29.5798 45.2039 29.5008 45.2265 29.3219C45.3676 29.2816 45.3342 29.4159 45.4532 29.3975C45.5287 29.2715 45.6513 29.1926 45.6799 29.0197C45.7962 28.9915 45.7526 29.1234 45.8688 29.0952C45.9262 28.9763 46.037 28.9109 46.0577 28.7551C46.1349 28.6655 46.2072 28.8071 46.2844 28.7173C46.4681 28.3431 46.7666 28.3169 46.9267 27.9238C46.9945 27.9191 47.0064 27.9702 47.0779 27.9617C47.5699 27.1564 48.2219 26.5112 49.0427 26.0347C49.3108 28.4249 49.4251 31.5983 49.3072 34.1961C49.2747 34.9105 49.1851 35.6778 48.7403 36.123C48.6842 36.4613 48.6753 36.9638 48.8537 37.1809C49.6941 36.8472 49.5479 35.102 49.7606 34.0826C49.742 32.5364 49.7685 30.3301 49.6473 28.3773C49.5977 27.58 49.4999 26.8007 49.5717 26.0725C50.3597 26.5314 50.9468 27.1909 51.4609 27.9238C51.7242 27.8537 51.6635 28.3214 51.9899 28.3018C52.0554 28.4631 52.1468 28.5983 52.2544 28.7174C52.3264 28.7882 52.3494 28.7215 52.4434 28.7174C52.5024 28.86 52.5907 28.9733 52.67 29.0953C52.7731 29.1228 52.7461 29.0203 52.8212 29.0197C52.914 29.141 52.9851 29.284 53.0857 29.3976C53.2021 29.4258 53.1584 29.2939 53.2746 29.322C53.3642 29.4465 53.4307 29.5941 53.5391 29.6999C53.6581 29.7182 53.6247 29.584 53.7658 29.6244C53.8603 29.7063 53.9236 29.8192 54.0304 29.8888C54.2657 29.7203 54.3873 29.9718 54.5594 30.0777C54.7711 29.9014 54.9108 30.1208 55.0883 30.1911C55.1761 30.2824 55.1895 30.1321 55.2772 30.1156C55.7649 30.3714 56.3061 30.3885 56.9019 30.569C56.4296 30.2226 56.2565 29.5771 55.7307 29.2844C55.7297 29.1953 55.7956 29.1731 55.7684 29.0577C55.6283 28.9836 55.5255 28.8723 55.3528 28.831C55.3247 28.7146 55.4566 28.7583 55.4284 28.642C55.2916 28.5774 55.1935 28.474 55.0128 28.4532C54.9821 28.3225 55.0834 28.2936 55.0128 28.2265C54.872 28.191 54.8029 28.0838 54.5972 28.1131C54.5095 28.0259 54.6672 27.9913 54.635 27.8487C54.4969 27.823 54.3602 27.796 54.1816 27.8109C54.0753 27.7726 54.192 27.6503 54.1816 27.5842C53.9605 27.5399 53.6137 27.553 53.6904 27.3197C53.4312 27.3396 53.1942 27.3373 53.1993 27.093C53.0008 27.1151 52.9131 27.0264 52.708 27.0552C52.6569 27.0183 52.659 26.9278 52.5947 26.9041C52.1973 26.9238 52.0742 26.669 51.6501 26.7152C51.5836 26.7061 51.5641 26.6502 51.5746 26.564C50.9353 26.5866 50.1976 26.2216 49.6853 25.8839C50.731 25.6495 52.4547 25.321 53.6526 25.7328C53.766 25.7077 53.7591 25.5622 53.8794 25.5439C54.2188 25.6075 54.5127 25.7167 54.824 25.8084C54.7917 25.6879 54.8569 25.665 54.8996 25.6196C55.215 25.644 55.4666 25.7325 55.7309 25.8084C55.9421 25.455 56.4988 25.8365 56.8643 25.8084C56.8643 25.7076 56.8643 25.6069 56.8643 25.5061C57.1853 25.5629 57.3972 25.7288 57.771 25.7328C57.7694 25.6085 57.7073 25.5447 57.7332 25.3928C58.0472 25.4567 58.2887 25.5931 58.6779 25.5818C58.6779 25.4684 58.6779 25.355 58.6779 25.2417C59.0128 25.2688 59.3142 25.4562 59.6602 25.355C59.672 25.2048 59.573 25.1653 59.5847 25.0149C59.8255 24.9272 60.3002 25.1127 60.5293 24.9395C60.523 24.8324 60.46 24.7819 60.4537 24.6749C60.7197 24.5882 61.1675 24.6834 61.3983 24.5616C61.3588 24.4751 61.3743 24.3337 61.3227 24.2593C61.6159 24.1621 61.9856 24.1414 62.2673 24.0325C62.2976 23.9015 62.211 23.8873 62.2295 23.768C62.5284 23.5003 63.2375 23.6424 63.2874 23.1257C63.8508 22.8578 64.4708 22.6467 64.8744 22.2189C64.087 22.2172 63.7281 22.2438 62.9853 22.2188Z" fill="#81AA66"/>
<path d="M49.6468 28.3783C49.6409 28.2833 49.2933 27.5834 49.2764 26.4615C49.1806 20.0735 49.2765 0.00257874 49.2765 0.00257874C49.2427 0.00906512 49.2282 0.0139737 49.1934 0.0403575C48.9891 1.15856 48.7904 2.28219 48.4376 3.252C48.3183 3.30292 48.2892 3.23788 48.0976 3.28978C47.9061 3.84129 47.8052 4.48353 47.833 5.25454C47.6485 5.25015 47.4349 5.27496 47.3041 5.21676C47.204 5.75153 47.2408 6.33277 47.3041 6.87929C47.17 7.02103 46.9124 6.91242 46.7373 6.87929C46.6348 7.45579 46.8196 8.01642 46.964 8.46618C46.8323 8.5768 46.6202 8.52929 46.4351 8.50395C46.2777 9.14225 46.5458 9.67615 46.7373 10.0908C46.5274 10.2076 46.2919 10.1329 46.0194 10.1287C46.0965 10.8078 46.3073 11.224 46.6618 11.6778C46.5793 11.8598 46.2163 11.7613 46.0194 11.8289C46.1644 12.4271 46.4199 12.9146 46.7373 13.3403C46.5927 13.435 46.3656 13.4472 46.1327 13.4536C46.2829 14.0213 46.5779 14.4443 46.8885 14.8516C46.8347 15.0119 46.5637 14.9551 46.3595 14.965C46.5195 15.6364 46.8695 16.1175 47.1152 16.703C47.0653 16.8043 46.8756 16.7658 46.7752 16.8163C46.9142 17.3951 47.347 17.6802 47.4174 18.3278C47.4121 18.4358 47.2598 18.3969 47.1529 18.4033C47.3797 18.9952 47.7705 19.4231 47.9465 20.0658C47.9047 20.1879 47.8261 20.2731 47.6442 20.2547C48.5544 21.4584 48.6984 23.2227 48.9666 25.0911C48.9228 25.0849 48.8994 25.0994 48.891 25.1289C48.3448 24.6774 47.9204 24.0464 47.4553 23.4287C46.9352 22.7378 46.3691 22.0795 46.2462 21.0106C45.6123 21.1348 45.72 20.2061 45.5284 19.7636C45.4261 19.6724 45.394 19.8805 45.226 19.8392C45.0861 19.4629 44.9693 19.0631 44.8482 18.6679C44.714 18.6722 44.7108 18.8076 44.5459 18.7812C44.4114 18.2987 44.273 17.8199 44.0547 17.421C43.8951 17.4502 43.9079 17.652 43.7146 17.6476C43.6109 17.2476 43.5184 16.8364 43.3746 16.4763C43.1972 16.5256 43.1271 16.6822 42.959 16.7408C42.8495 16.3087 42.7702 15.8464 42.5056 15.5695C42.3292 15.5946 42.3006 15.7675 42.1277 15.7962C41.9742 15.3829 41.8828 14.9075 41.5988 14.6249C41.421 14.6991 41.3886 14.9186 41.1831 14.965C41.0032 14.5529 40.8635 14.1007 40.4274 13.9448C40.4068 14.1005 40.3032 14.1731 40.2008 14.247C40.0014 13.8545 39.7619 13.502 39.4451 13.2269C39.3275 13.2983 39.3062 13.4658 39.1806 13.5292C38.8183 13.2743 38.6197 12.8559 38.236 12.6224C38.1144 12.6898 38.1068 12.871 37.9338 12.8868C37.5733 12.5672 37.2083 12.2521 36.7625 12.0177C36.6244 12.0183 36.5927 12.1252 36.4979 12.1689C35.6913 11.7917 35.0644 11.2345 34.2686 10.8465C34.563 11.6101 34.9867 12.2446 35.4022 12.8868C35.2971 13.6285 35.9174 13.9195 36.2335 14.3605C36.1997 14.5157 36.0483 14.5532 35.969 14.6627C36.1945 15.0292 36.5544 15.2613 36.838 15.5696C36.8306 15.7637 36.5978 15.7324 36.5735 15.9097C36.8284 16.2215 37.1944 16.4222 37.5559 16.6276C37.5719 16.8452 37.2884 16.7631 37.2914 16.9676C37.5281 17.2599 37.8189 17.498 38.2738 17.5722C38.2663 17.8166 38.0772 17.8793 37.9337 17.9878C38.1929 18.3793 38.6641 18.3309 39.0294 18.5924C39.0756 18.7663 38.8641 18.878 38.9161 18.9325C39.1819 19.183 39.5571 19.324 40.0496 19.3481C40.0526 19.5779 39.8638 19.6157 39.823 19.8015C40.176 19.9396 40.5134 20.0934 40.9942 20.1038C41.0017 20.3129 40.8207 20.3333 40.7675 20.4817C41.1503 20.6782 41.5205 20.8874 42.0522 20.935C42.1372 21.0808 42.0077 21.1096 42.0144 21.2751C42.3781 21.4279 42.7868 21.5355 43.1857 21.653C43.2092 21.8123 42.9801 21.8442 43.0725 21.9553C43.5569 22.088 44.0965 22.1655 44.4327 22.4465C44.4731 22.5877 44.3389 22.5542 44.3571 22.6731C46.1566 23.1533 47.2909 24.2986 48.4756 25.3936C47.4875 25.223 46.4504 24.7741 45.6796 24.2601C45.6041 24.134 45.4717 24.0647 45.3773 23.9579C45.3268 23.9956 45.303 24.06 45.2261 24.0712C44.9091 23.9097 44.6652 23.675 44.4327 23.4289C44.3036 23.4005 44.3847 23.5824 44.2438 23.5422C43.9735 23.4094 43.8068 23.1731 43.5636 23.0132C43.4666 23.0169 43.5096 23.1607 43.4125 23.1644C43.1085 22.9646 42.8669 22.7024 42.5434 22.522C42.4667 22.5462 42.5185 22.6986 42.43 22.711C42.0957 22.6548 42.0209 22.3392 41.7499 22.2198C41.5966 22.2175 41.6818 22.4539 41.5231 22.4464C41.2583 22.2956 41.1052 22.0334 40.7674 21.9552C40.7685 22.0822 40.7155 22.1552 40.6541 22.2197C40.3457 22.0872 40.2042 21.788 39.8229 21.7285C39.7632 21.8073 39.7967 21.9793 39.7472 22.0685C39.4989 22.0474 39.2743 21.6887 38.8404 21.7285C38.8359 21.8373 38.861 21.9758 38.8026 22.0307C38.4904 21.94 38.3271 21.7002 37.8958 21.7285C37.9178 21.8511 37.8701 21.9042 37.8581 21.993C37.4988 21.9618 37.2552 21.8149 36.8757 21.804C36.8976 21.9519 36.8433 22.0233 36.8002 22.1063C36.487 22.0166 36.121 21.9794 35.7044 21.993C35.6498 22.0517 35.625 22.1403 35.591 22.2197C34.8994 22.2385 34.3873 22.2181 33.6641 22.2197C34.0634 22.6264 34.6335 22.8624 35.2133 23.0888C35.2926 23.5888 35.9172 23.5434 36.3089 23.7311C36.3358 23.8712 36.2443 23.8932 36.2711 24.0333C36.552 24.1177 36.8433 24.1916 37.1778 24.2222C37.233 24.2885 37.1546 24.4501 37.1401 24.5623C37.3756 24.6544 37.7184 24.6389 38.0469 24.6378C38.134 24.7293 38.0085 24.8213 38.0092 24.9401C38.2495 25.0817 38.6438 24.9875 38.9538 24.9778C38.977 25.1522 38.8689 25.1953 38.8782 25.3557C39.1962 25.4395 39.5224 25.2927 39.8228 25.2423C39.9085 25.2825 39.8372 25.4798 39.8606 25.5824C40.2288 25.5854 40.4884 25.4797 40.7674 25.3935C40.8759 25.4681 40.7542 25.6292 40.7674 25.7335C41.1229 25.7237 41.3494 25.5849 41.6364 25.5068C41.7216 25.5349 41.6512 25.7187 41.6741 25.809C42.0115 25.8445 42.594 25.4459 42.77 25.809C43.0459 25.745 43.298 25.6569 43.6012 25.6202C43.6793 25.6429 43.7443 25.6787 43.7145 25.809C44.0122 25.7162 44.3093 25.6228 44.6212 25.5446C44.7527 25.5517 44.7893 25.6538 44.848 25.7335C46.0676 25.3062 47.7993 25.6833 48.8532 25.8468C48.3063 26.2594 47.6897 26.5648 46.8883 26.5646V26.7158C46.4742 26.6794 46.3348 26.9179 45.9438 26.9047C45.8947 27.1201 45.5432 27.0331 45.377 27.1315C45.2634 27.0932 45.3101 27.2156 45.3014 27.2826C45.1879 27.3329 45.0124 27.321 44.848 27.3204C44.7851 27.3954 44.8515 27.3684 44.848 27.4715C44.7038 27.5928 44.2351 27.4578 44.3946 27.7738C44.2947 27.8502 44.0477 27.7795 43.9411 27.8493C43.8588 27.9283 43.9601 27.9572 43.9411 28.0759C43.807 28.1307 43.6455 28.1581 43.5256 28.2271C43.4547 28.2991 43.548 28.2955 43.5256 28.4161C43.4022 28.5069 43.233 28.5517 43.11 28.6427C43.0825 28.7459 43.185 28.7189 43.1855 28.7939C43.0628 28.898 42.9001 28.9618 42.7699 29.0584C42.6997 29.1252 42.7864 29.1687 42.8076 29.2474C42.3156 29.5865 42.1001 30.2023 41.6363 30.5699C42.2144 30.3848 42.7695 30.389 43.2232 30.1164C43.3642 30.0763 43.283 30.2582 43.4122 30.2298C43.6768 29.9189 44.0696 30.188 44.2813 29.8141C44.5024 29.9714 44.6445 29.7686 44.7724 29.6252C44.9136 29.5848 44.8802 29.7189 44.9992 29.7008C45.0805 29.5807 45.2032 29.5017 45.2258 29.3228C45.3669 29.2825 45.3335 29.4168 45.4525 29.3985C45.528 29.2724 45.6506 29.1935 45.6791 29.0206C45.7954 28.9924 45.7519 29.1244 45.8681 29.0961C45.9254 28.9772 46.0362 28.9118 46.057 28.756C46.1341 28.6665 46.2065 28.808 46.2837 28.7183C46.4674 28.3441 46.7659 28.3179 46.9259 27.9247C46.9938 27.92 47.0057 27.9711 47.0771 27.9626C47.5691 27.1573 48.2212 26.5121 49.042 26.0356C49.31 28.4258 49.4244 31.5993 49.3064 34.197C49.274 34.9114 49.1843 35.6788 48.7396 36.124C48.6835 36.4622 48.6745 36.9647 48.853 37.1819C49.6934 36.8482 49.5472 35.1029 49.7599 34.0836C49.7416 32.5374 49.7681 30.3311 49.6468 28.3783Z" fill="#81AA66"/>
<path d="M15.4494 46.5811C15.9714 46.555 17.0415 46.8291 18.6597 47.4033C19.4687 47.6904 20.6563 47.9122 22.2222 48.0688C22.1439 48.0688 21.4262 47.7687 20.069 47.1684C18.4248 46.4376 16.9632 45.7068 15.6843 44.976C14.823 44.4801 14.0923 44.2322 13.492 44.2322C13.0222 44.2322 12.6959 44.3366 12.5132 44.5454L13.0222 43.6841C12.0826 43.5014 11.3257 43.6058 10.7515 43.9973L10.9473 43.2926C10.0338 43.1621 9.22471 43.4883 8.52003 44.2713C8.44173 43.7493 8.53308 43.3839 8.79407 43.1752C8.71577 43.1491 8.65052 43.136 8.59833 43.136C8.23293 43.2665 7.85449 43.4622 7.463 43.7232C6.99321 44.0364 6.71917 44.3105 6.64087 44.5454L6.60172 43.919C6.23633 44.1539 5.88399 44.3888 5.54469 44.6237C4.84001 45.224 4.48767 45.8242 4.48767 46.4245L4.21362 45.7198C4.00483 45.9808 3.79603 46.2418 3.58724 46.5028C3.14355 47.2336 2.9739 48.0688 3.0783 49.0084C2.9217 48.9823 2.73901 48.7082 2.53021 48.1862C2.45191 48.3428 2.38666 48.4864 2.33446 48.6169C2.17787 49.0345 2.09957 49.4651 2.09957 49.9088C2.09957 50.6135 2.29532 51.279 2.68681 51.9054C2.47801 51.8532 2.20397 51.6966 1.86468 51.4356C1.78638 52.5579 2.28227 53.5627 3.35234 54.4501L2.56936 54.3327C2.64766 54.7241 2.72596 54.9982 2.80425 55.1548C3.19575 55.8595 3.91348 56.4467 4.95746 56.9165C4.46157 56.9426 4.10923 56.9165 3.90043 56.8382C3.92653 56.9948 4.08313 57.2036 4.37022 57.4646C4.89221 57.9866 5.62299 58.3389 6.56257 58.5216L5.66214 58.9131C5.92313 59.0697 6.18413 59.2002 6.44512 59.3046C7.14981 59.6178 7.85449 59.7744 8.55918 59.7744L7.85449 60.2442C8.21988 60.5052 8.70272 60.6357 9.30301 60.6357C9.5901 60.6357 9.89025 60.5965 10.2034 60.5182L10.0077 60.9097C10.0077 61.0141 10.3209 61.0141 10.9473 60.9097C11.5737 60.7792 11.9782 60.6618 12.1609 60.5574L12.0434 60.9489C13.8182 60.714 15.593 60.1659 17.3677 59.3046C16.9762 59.3046 16.6108 59.2785 16.2716 59.2263C15.4886 59.1219 14.9013 58.9523 14.5098 58.7174C13.8052 58.2737 13.2832 57.9083 12.9439 57.6212C12.8656 57.7778 12.9178 58.0649 13.1005 58.4825C12.8134 57.9083 12.4219 57.2166 11.926 56.4076C11.7955 56.6947 11.7303 56.9165 11.7303 57.0731C11.5476 56.6816 11.1822 56.1205 10.6341 55.3897L10.4383 55.8595C10.3861 55.8856 10.1251 55.3114 9.65535 54.1369L9.34216 54.8024C9.34216 54.4371 9.21166 53.8237 8.95067 52.9624L8.52003 53.3931C8.65052 53.0538 8.71577 52.5187 8.71577 51.788C8.53308 51.8402 8.31123 51.9185 8.05024 52.0229C8.38953 51.4226 8.54613 51.0572 8.52003 50.9267C8.28513 50.9789 8.05024 51.0441 7.81534 51.1224C7.81534 51.1224 7.99804 50.9919 8.36343 50.7309C8.72882 50.4699 8.89847 50.2611 8.87237 50.1045L8.16768 49.9088C8.40258 49.8827 8.74187 49.687 9.18556 49.3216L8.59833 48.9692C8.91152 48.8909 9.39436 48.7474 10.0468 48.5386C9.96854 48.5125 9.7989 48.4081 9.5379 48.2254C9.6162 48.2254 9.6945 48.2254 9.7728 48.2254C10.1643 48.2776 10.5036 48.2645 10.7907 48.1862L10.3209 47.4816C10.6863 47.6643 11.1952 47.7034 11.8477 47.599C11.7694 47.4946 11.6389 47.2858 11.4562 46.9726C12.1348 47.077 12.7481 47.1162 13.2962 47.0901L12.983 46.542C14.549 46.5681 15.3711 46.5811 15.4494 46.5811ZM23.7099 65.3727L24.6103 65.6076C24.5842 65.2161 24.4929 64.8507 24.3363 64.5114C23.8665 63.5979 22.9791 62.7889 21.6741 62.0842C21.9612 62.0842 22.3919 62.1494 22.9661 62.2799C22.94 62.0972 22.7442 61.7971 22.3788 61.3795C21.7263 60.6748 20.7737 60.1528 19.5209 59.8135L20.6954 59.422C20.3561 59.1871 19.9907 58.9784 19.5992 58.7957C18.6597 58.352 17.707 58.104 16.7413 58.0518L17.6809 57.5429C17.1067 57.1775 16.4151 56.9948 15.606 56.9948C15.1884 56.9948 14.7708 57.047 14.3532 57.1514L14.549 56.6425C13.244 56.6947 12.2653 56.9295 11.6128 57.3471L11.6911 56.8773C9.26386 57.5298 7.18896 58.8218 5.4664 60.7531C6.58867 60.2833 7.58045 60.0484 8.44173 60.0484C9.19861 60.0484 10.1904 60.3616 11.4171 60.988C11.4693 60.7792 11.3388 60.453 11.0256 60.0093C11.0517 60.0093 11.3127 60.3355 11.8086 60.988C12.3827 61.7449 12.722 62.1755 12.8264 62.2799C12.9569 61.8884 13.0091 61.6144 12.983 61.4578C13.2701 61.9276 13.7921 62.6062 14.549 63.4935L14.7447 62.9063C14.8752 62.8541 15.2406 63.611 15.8409 65.177L16.2324 64.3548C16.2585 64.8507 16.4804 65.712 16.8979 66.9387L17.3677 66.4297C17.185 67.552 17.172 68.3611 17.3286 68.857C17.5374 68.7787 17.7853 68.6612 18.0724 68.5046C17.8897 68.8961 17.707 69.4703 17.5243 70.2272C17.8636 70.1228 18.1507 70.0054 18.3856 69.8749C18.3856 69.901 18.1507 70.1228 17.6809 70.5404C17.2372 70.9319 17.0284 71.219 17.0545 71.4017L17.9158 71.6366C17.6287 71.741 17.172 72.002 16.5456 72.4196C16.7544 72.5761 16.9893 72.7197 17.2503 72.8502C17.2242 72.798 16.5456 72.9676 15.2145 73.3591C15.2928 73.4113 15.5016 73.5418 15.8409 73.7506C15.867 73.7767 15.8801 73.8028 15.8801 73.8289C15.8801 73.8289 15.7104 73.8028 15.3711 73.7506C14.8752 73.6984 14.4315 73.6854 14.0401 73.7115L14.5881 74.6119C14.0923 74.3509 13.3615 74.2596 12.3958 74.3379C12.5002 74.4945 12.6568 74.7554 12.8656 75.1208C11.8477 74.9381 11.0256 74.8207 10.3992 74.7685L10.7124 75.4732C9.7728 75.3427 8.72882 75.1339 7.58045 74.8468C6.69307 74.6119 5.45335 73.7767 3.86128 72.3413C1.40794 70.0706 0.181263 68.9614 0.181263 69.0136C0.31176 69.3529 0.938146 70.2403 2.06042 71.6757C3.62639 73.6854 5.21845 75.3427 6.83661 76.6477C8.11549 77.6916 9.22471 78.2136 10.1643 78.2136C10.608 78.2136 10.9473 78.1092 11.1822 77.9004C11.0256 78.1353 10.7907 78.4616 10.4775 78.8792C10.9734 79.0097 11.4823 79.0749 12.0043 79.0749C12.6046 79.0749 13.1135 78.9705 13.5311 78.7617L13.1788 79.5838C13.3354 79.636 13.5703 79.6621 13.8835 79.6621C14.823 79.6621 15.6974 79.3228 16.5065 78.6443C16.5065 79.2706 16.3368 79.7013 15.9975 79.9362C16.389 79.884 16.7805 79.8318 17.172 79.7796C18.0594 79.5186 18.6727 79.088 19.012 78.4877L18.9728 79.1924C19.4687 78.9314 19.9646 78.6704 20.4605 78.4094C21.5045 77.6525 22.0656 76.8695 22.1439 76.0604L22.3788 76.9609C22.692 76.5955 23.0052 76.2431 23.3184 75.9038C23.9448 74.912 24.2058 73.8028 24.1014 72.5761C24.2058 72.6022 24.2971 72.6544 24.3754 72.7327C24.5842 72.9154 24.7017 73.2025 24.7278 73.594C24.8061 73.3852 24.8974 73.1895 25.0018 73.0068C25.1845 72.4326 25.2759 71.8584 25.2759 71.2842C25.2759 70.3707 25.0279 69.5095 24.532 68.7004C24.793 68.7787 25.1323 68.9744 25.5499 69.2876C25.6021 69.0527 25.5629 68.6612 25.4325 68.1131C25.1715 67.0953 24.5973 66.1818 23.7099 65.3727ZM33.136 66.4297C33.136 66.4297 33.149 66.4428 33.1751 66.4689C33.1751 66.4428 33.1621 66.4297 33.136 66.4297ZM41.7096 68.7004L42.3752 68.8961C42.3491 68.6612 42.336 68.4133 42.336 68.1523C42.1533 67.552 41.7749 67.017 41.2007 66.5472C41.5139 66.4167 41.814 66.4689 42.1011 66.7038C42.1011 66.5472 42.0098 66.2731 41.8271 65.8816C41.4878 65.2553 40.9397 64.7855 40.1828 64.4723C40.6265 64.3418 40.9266 64.3026 41.0832 64.3548C40.9266 64.146 40.77 63.9372 40.6134 63.7284C40.1437 63.2848 39.4651 62.9977 38.5777 62.8672L39.2824 62.5931C38.9431 61.9667 38.2253 61.6535 37.1292 61.6535C36.816 61.6535 36.4767 61.6796 36.1113 61.7318C36.4506 61.4447 36.7507 61.2751 37.0117 61.2229C36.5941 61.0141 36.2026 60.9097 35.8372 60.9097C35.237 60.9097 34.5975 61.1055 33.9189 61.4969L34.3496 60.5965C34.2191 60.5704 33.9189 60.6487 33.4492 60.8314C32.6923 61.0924 32.0528 61.523 31.5308 62.1233L31.6483 61.2229C30.6826 61.6666 30.1345 62.3713 30.004 63.337L29.6908 63.0238C29.6386 63.0238 29.5734 63.2848 29.4951 63.8067C29.4168 64.3809 29.4429 64.8246 29.5734 65.1378L29.221 64.9029C29.221 65.6337 29.3124 66.4819 29.4951 67.4476C29.6517 68.2567 29.8083 69.0658 29.9649 69.8749C30.1215 69.3007 30.4999 68.5177 31.1002 67.5259C31.2046 67.3954 31.5961 67.0561 32.2747 66.508C31.9354 66.4297 31.6613 66.3906 31.4525 66.3906C31.4525 66.3645 31.7005 66.3384 32.1964 66.3123C32.6923 66.2862 33.0055 66.3253 33.136 66.4297C32.9533 66.1948 32.8097 66.0513 32.7053 65.9991C32.888 65.8947 33.1229 66.0774 33.41 66.5472L33.2926 66.0382C33.5275 66.247 33.7623 66.508 33.9972 66.8212L34.0364 66.0774C34.0886 66.3645 34.2843 66.6907 34.6236 67.0561L34.8194 66.5472C34.7933 66.8343 34.8977 67.2258 35.1326 67.7217C35.2631 67.5912 35.4066 67.4215 35.5632 67.2127C35.5371 67.8391 35.5763 68.2045 35.6807 68.3089C35.8633 68.1523 36.033 67.9696 36.1896 67.7608C36.1896 67.7608 36.1374 67.9044 36.033 68.1914C35.9286 68.4785 35.8764 68.7134 35.8764 68.8961C35.8764 69.0788 35.9155 69.2224 35.9938 69.3268L36.6202 68.9744C36.4114 69.5225 36.3462 69.9271 36.4245 70.1881C36.555 70.162 36.7638 70.0837 37.0509 69.9532C36.9204 70.2663 36.7638 70.697 36.5811 71.2451C36.7116 71.1929 36.8812 71.1276 37.09 71.0493C37.0639 71.1015 37.0378 71.1668 37.0117 71.2451C36.7768 71.48 36.6202 71.6888 36.5419 71.8715L37.4032 71.9498C37.09 71.9498 36.816 72.2499 36.5811 72.8502C36.7116 72.8763 36.9465 72.9154 37.2858 72.9676C37.1814 72.9154 36.8943 73.2678 36.4245 74.0247L36.9726 74.1813C36.816 74.3379 36.4114 74.8337 35.759 75.6689C35.3153 76.217 34.5323 76.6346 33.41 76.9217C33.0185 77.1044 32.3921 77.2349 31.5308 77.3132C30.774 77.3915 30.3825 77.4045 30.3564 77.3523C30.3303 77.5872 31.1263 77.7047 32.7445 77.7047C34.2582 77.7047 35.5893 77.4567 36.7377 76.9609C38.3036 76.465 38.9953 75.8386 38.8126 75.0817L39.2432 75.9038C39.8957 75.1991 40.1959 74.5728 40.1437 74.0247L40.6526 74.5728C40.6787 74.5467 40.757 74.4292 40.8875 74.2204C41.0963 73.8811 41.2007 73.5288 41.2007 73.1634C41.2007 72.8763 41.1354 72.5892 41.0049 72.3021C41.2398 72.3804 41.5139 72.6153 41.8271 73.0068C42.0359 72.6153 42.1403 72.2369 42.1403 71.8715C42.1403 71.5061 42.0228 71.1929 41.7879 70.9319L42.2969 71.1668C42.323 70.8536 42.3491 70.5404 42.3752 70.2272C42.323 69.4964 42.1011 68.9875 41.7096 68.7004ZM32.7053 88.1184C32.3921 87.6486 32.1572 87.1527 32.0006 86.6307C31.9484 86.6568 31.8571 86.8786 31.7266 87.2962C31.7788 86.7481 31.8049 86.0565 31.8049 85.2213C31.57 85.3518 31.4264 85.4823 31.3742 85.6128C31.4003 84.6993 31.3742 84.0338 31.296 83.6162L30.9436 83.8902C30.9436 83.6815 30.9567 83.3944 30.9828 83.029C31.0089 82.3765 31.0219 81.9719 31.0219 81.8153L30.5521 82.246C30.8131 81.5152 30.8784 80.7714 30.7479 80.0145L30.3564 80.3277C30.6696 79.5447 30.787 78.7878 30.7087 78.057C30.5521 78.1353 30.3694 78.2397 30.1606 78.3702C30.4738 77.5611 30.6043 76.9348 30.5521 76.4911L29.9649 77C30.4086 76.1909 30.6304 75.4993 30.6304 74.9251C30.6304 74.7946 30.6174 74.6772 30.5913 74.5728L30.0432 74.9251C30.3564 74.2204 30.4999 73.5418 30.4738 72.8893L29.9257 73.2808C30.0823 72.7849 30.2389 72.0672 30.3955 71.1276C30.2911 71.2581 30.1476 71.4017 29.9649 71.5583C29.991 71.4539 30.0171 71.3495 30.0432 71.2451C30.252 70.8275 30.3825 70.4229 30.4347 70.0315L29.73 70.3055C29.8605 70.175 30.0301 69.6269 30.2389 68.6612C30.0301 68.7656 29.8344 68.87 29.6517 68.9744C29.8866 68.2175 30.004 67.5912 30.004 67.0953L29.5342 67.3693C29.6647 66.4297 29.7169 65.6468 29.6908 65.0204C29.6647 64.6811 29.8344 63.6501 30.1998 61.9276C30.3303 61.3012 30.3694 60.1789 30.3172 58.5608C30.1867 59.3437 30.0432 60.0484 29.8866 60.6748C29.469 62.3191 28.9731 63.7154 28.3989 64.8638C27.9552 65.7511 27.7334 66.4558 27.7334 66.9778C27.7334 67.291 27.7986 67.5129 27.9291 67.6434L27.3027 67.1344C27.0678 67.9174 27.0287 68.5438 27.1853 69.0136L26.6764 68.7004C26.572 68.9614 26.5198 69.2485 26.5198 69.5617C26.5198 69.9532 26.6111 70.3446 26.7938 70.7361C26.4023 70.6056 26.1674 70.4229 26.0891 70.1881C25.9847 70.4751 25.9325 70.7622 25.9325 71.0493C25.9325 71.4147 26.0239 71.7149 26.2066 71.9498L25.7759 71.754C25.5932 72.7197 25.6846 73.4374 26.05 73.9072L25.541 73.6332C25.3583 74.2857 25.4888 75.0164 25.9325 75.8255C25.802 75.8255 25.5932 75.695 25.3061 75.434C25.1234 76.217 25.3192 77.0261 25.8934 77.8613C25.5541 77.7569 25.3322 77.6525 25.2278 77.5481C25.1756 78.2267 25.4627 78.9705 26.0891 79.7796L25.541 79.5447C25.3844 80.1711 25.7368 80.9802 26.5981 81.9719C26.4415 81.9197 26.2066 81.8023 25.8934 81.6196C25.8934 82.2721 26.311 83.0029 27.1461 83.8119L26.3632 83.6945C26.5198 84.0599 27.0548 84.7385 27.9683 85.7303L27.2636 85.652C27.5507 86.0434 28.0596 86.5524 28.7904 87.1788L28.4772 87.3354C29.1036 87.8574 29.6778 88.1836 30.1998 88.3141L29.9257 88.5098C31.1263 89.2145 32.366 89.5669 33.6449 89.5669C34.0364 89.5669 34.4018 89.5277 34.7411 89.4494C34.4279 89.3711 34.1408 89.2537 33.8798 89.0971C33.2534 88.81 32.8619 88.4837 32.7053 88.1184ZM50.6225 76.726C50.5703 76.0735 50.5703 75.421 50.6225 74.7685C50.5442 74.7685 50.3354 74.9773 49.9961 75.3949C50.2832 74.8207 50.6094 74.0638 50.9748 73.1242C50.8182 73.1503 50.5964 73.2417 50.3093 73.3983C50.7008 72.4848 50.8835 71.741 50.8574 71.1668L50.3876 71.4017C50.753 70.2011 50.9618 69.4312 51.014 69.0919L50.3093 69.4834C50.8313 68.7004 51.0792 67.8783 51.0531 67.017L50.505 67.291C51.0531 66.4819 51.3011 65.6598 51.2489 64.8246L50.7399 65.0204C50.6616 65.0465 50.5964 65.0726 50.5442 65.0987C51.0401 64.2374 51.2619 63.5457 51.2097 63.0238L50.505 63.5718C51.1314 62.6584 51.4446 61.8754 51.4446 61.2229C51.4446 61.0924 51.4316 60.975 51.4055 60.8706L50.6616 61.2229C51.0792 60.4399 51.2619 59.67 51.2097 58.9131L50.5442 59.3437C50.9096 58.2215 51.0662 57.3993 51.014 56.8773C50.8835 57.06 50.7269 57.2297 50.5442 57.3863C50.5181 57.4124 50.492 57.4254 50.4659 57.4254C50.4659 57.4254 50.5311 57.2558 50.6616 56.9165C50.8182 56.4728 50.9096 56.0422 50.9357 55.6246L50.1135 56.0161C50.4267 55.5985 50.5311 54.959 50.4267 54.0978C50.2179 54.2544 50.0091 54.3979 49.8003 54.5284C49.9569 53.5888 49.9569 52.8711 49.8003 52.3752L49.3305 52.7667C49.3044 52.2708 49.1218 51.4226 48.7825 50.222C48.5998 49.8305 48.4562 49.3085 48.3518 48.656C48.143 47.6904 48.0125 47.1031 47.9603 46.8943C47.8037 46.2679 47.1773 45.2631 46.0812 43.8798C46.9686 45.3936 47.4122 47.0379 47.4122 48.8126C47.4122 49.2302 47.3339 49.8044 47.1773 50.5352C47.0208 51.2399 46.9425 51.7749 46.9425 52.1403C46.9425 52.7928 47.099 53.2234 47.4122 53.4322L46.5118 53.0407C46.3813 53.8498 46.4596 54.4762 46.7467 54.9199L46.0812 54.685C45.8724 55.3114 46.0029 55.99 46.4727 56.7208C46.2378 56.6686 45.9246 56.4989 45.5331 56.2118C45.2982 56.9426 45.4026 57.5298 45.8463 57.9735L45.3373 57.7778C45.1546 58.7435 45.2851 59.4742 45.7288 59.9701L45.1024 59.6569C44.8675 60.3355 44.998 61.0924 45.4939 61.9276C45.2068 61.9276 44.9719 61.784 44.7893 61.4969C44.711 61.6796 44.6718 61.9015 44.6718 62.1625C44.6718 62.7628 44.8806 63.3892 45.2982 64.0416C44.8806 63.885 44.6196 63.7545 44.5152 63.6501C44.3586 64.2765 44.6327 65.0726 45.3373 66.0382L44.6327 65.7251C44.5805 65.8294 44.5544 65.986 44.5544 66.1948C44.5544 66.7951 44.8936 67.539 45.5722 68.4263C45.3634 68.3219 45.0894 68.1523 44.7501 67.9174C44.6196 68.596 44.9589 69.4312 45.768 70.4229L44.8675 70.1489C45.0763 70.6709 45.5331 71.48 46.2378 72.5761L45.4156 72.3413C45.4417 72.5239 45.4939 72.7197 45.5722 72.9285C45.8071 73.3983 46.1595 73.842 46.6293 74.2596L46.1986 74.3379C46.4857 74.7033 47.0077 75.1991 47.7646 75.8255L47.3731 75.943C48.5737 77.3001 50.0222 78.4485 51.7186 79.3881C51.6925 79.3881 51.4968 79.0488 51.1314 78.3702C50.766 77.7177 50.5964 77.1696 50.6225 76.726ZM61.5723 55.1548C61.4157 55.1287 61.2461 54.9982 61.0634 54.7633C61.0112 54.6589 60.959 54.4501 60.9068 54.1369C60.8546 54.1891 60.7763 54.3849 60.6719 54.7241C60.8285 54.0195 60.8937 53.6149 60.8676 53.5105C60.8154 53.6149 60.7371 53.7715 60.6327 53.9803C60.6849 53.5366 60.6719 53.2756 60.5936 53.1973L60.3978 53.5888C60.3978 53.3539 60.3848 53.106 60.3587 52.845L60.0846 53.3539C60.189 52.9102 60.189 52.6753 60.0846 52.6492L59.8497 53.0407C59.9802 52.6231 59.9802 52.4013 59.8497 52.3752L59.5365 52.845C59.6148 52.4796 59.6279 52.3099 59.5757 52.336L59.2625 52.7667C59.4713 52.2708 59.4974 52.049 59.3408 52.1012L58.9885 52.5318C59.0929 52.2447 59.1059 52.1012 59.0276 52.1012L58.6361 52.4535C58.7144 52.1925 58.7144 52.049 58.6361 52.0229C58.5839 52.1012 58.5056 52.1925 58.4012 52.2969C58.5056 52.1925 58.5187 52.0751 58.4404 51.9446L57.9314 52.3752C58.1141 52.1925 58.1402 52.062 58.0097 51.9837C57.9314 52.0359 57.8009 52.1273 57.6182 52.2577C57.6443 52.0751 57.5921 51.9707 57.4616 51.9446L57.1484 52.1795C57.0962 52.1012 56.9396 51.9837 56.6787 51.8271C56.5221 51.7488 56.3916 51.54 56.2872 51.2007C56.2611 51.0702 55.974 50.8614 55.4259 50.5743C55.6086 50.7831 55.6999 51.0572 55.6999 51.3965C55.6999 51.6053 55.6347 51.8532 55.5042 52.1403C55.3998 52.4274 55.3476 52.6231 55.3476 52.7275C55.3476 52.9363 55.4911 53.0146 55.7782 52.9624L55.1127 53.1582C55.1127 53.2887 55.2562 53.4192 55.5433 53.5497L55.0344 53.7846C54.9822 54.0456 55.191 54.15 55.6608 54.0978C55.3476 54.2805 55.0996 54.3849 54.9169 54.411C54.9169 54.6197 55.0213 54.7241 55.2301 54.7241C55.3084 54.7241 55.3998 54.698 55.5042 54.6458L55.1518 54.8807C55.2301 55.0895 55.3737 55.1939 55.5825 55.1939C55.6608 55.1939 55.7652 55.1678 55.8957 55.1156L55.465 55.3897C55.5172 55.6507 55.7782 55.7029 56.248 55.5463C56.1697 55.6507 56.0001 55.7681 55.7391 55.8986C55.7652 56.0552 55.8826 56.1335 56.0914 56.1335C56.248 56.1335 56.4438 56.0813 56.6787 55.9769C56.5482 56.1074 56.3785 56.251 56.1697 56.4076C56.2741 56.6164 56.6004 56.5511 57.1484 56.2118L56.757 56.6033C56.757 56.6816 56.8092 56.7208 56.9135 56.7208C57.0962 56.7208 57.3833 56.6033 57.7748 56.3684C57.6704 56.4728 57.5138 56.6294 57.305 56.8382C57.3833 57.0209 57.6965 56.9165 58.2446 56.525L57.7748 57.0731C57.9053 57.0731 58.2446 56.9165 58.7927 56.6033L58.4012 57.0731C58.61 56.9948 58.871 56.8512 59.1842 56.6425L59.0276 56.9556C59.1842 56.8512 59.4452 56.6425 59.8106 56.3293L59.654 56.6033C60.3326 56.1335 60.972 55.6507 61.5723 55.1548ZM61.8463 72.0281L61.1417 72.1847C61.6114 71.5844 61.8202 71.1015 61.768 70.7361L61.0634 71.0885C61.6114 70.4882 61.8855 69.9662 61.8855 69.5225C61.8855 69.4181 61.8724 69.3137 61.8463 69.2093L61.1417 69.4834C61.507 68.9353 61.6375 68.4263 61.5331 67.9566L60.9068 68.2306C61.1678 67.4998 61.2722 66.9648 61.22 66.6255C61.1678 66.7038 61.0242 66.8212 60.7893 66.9778C60.7893 66.8995 60.8024 66.8343 60.8285 66.7821C61.0112 66.4428 61.0895 66.1296 61.0634 65.8425L60.2804 66.1165C60.5675 65.8555 60.6588 65.451 60.5544 64.9029C60.3195 65.0073 60.1107 65.0987 59.928 65.177C60.0585 64.7072 60.0585 64.2635 59.928 63.8459L59.4191 64.1199C59.3408 63.6762 59.1972 63.1412 58.9885 62.5148C58.9102 62.3321 58.8058 61.6144 58.6753 60.3616C58.6231 59.8396 58.2968 59.0958 57.6965 58.1301C57.827 58.7565 57.8923 59.409 57.8923 60.0876C57.8923 61.0533 57.7226 61.9145 57.3833 62.6714C57.1745 63.1151 57.0701 63.4936 57.0701 63.8067C57.0701 64.1982 57.2267 64.4462 57.5399 64.5506L56.6004 64.3157C56.496 64.8638 56.5873 65.2814 56.8744 65.5685L56.2089 65.4119C56.0001 65.8555 56.1567 66.2862 56.6787 66.7038C56.235 66.6777 55.9218 66.5863 55.7391 66.4297C55.5303 66.8995 55.6608 67.2649 56.1306 67.5259L55.5825 67.4476C55.4781 68.0479 55.6608 68.4916 56.1306 68.7787L55.5042 68.6221C55.3215 69.0136 55.4911 69.4573 56.0131 69.9532C55.6999 69.9532 55.452 69.8749 55.2693 69.7183C55.0605 70.1359 55.2693 70.6187 55.8957 71.1668C55.4781 71.0624 55.204 70.971 55.0735 70.8927C54.943 71.232 55.2171 71.7018 55.8957 72.3021L55.2301 72.0281C55.1779 72.0803 55.1518 72.1586 55.1518 72.263C55.1518 72.5761 55.4259 73.0068 55.974 73.5549C55.7913 73.4766 55.5433 73.333 55.2301 73.1242C55.0735 73.3852 55.2823 73.855 55.8565 74.5336L55.0344 74.0638C55.1127 74.3248 55.3345 74.7685 55.6999 75.3949L55.1127 74.8859C55.1649 74.8859 55.2562 75.2513 55.3867 75.9821L55.0735 75.6298C55.0996 76.2301 55.0996 76.726 55.0735 77.1174L54.8778 76.7651C54.6168 78.0179 53.873 79.1924 52.6463 80.2885C53.1683 80.158 53.9904 80.0014 55.1127 79.8187C55.191 79.8187 55.7913 79.7404 56.9135 79.5838C56.8092 79.4794 56.6004 79.3359 56.2872 79.1532C57.3572 79.4403 58.1141 79.4272 58.5578 79.1141C58.4534 79.0097 58.2838 78.8792 58.0489 78.7226C58.2838 78.7226 58.597 78.6051 58.9885 78.3702C59.5365 78.057 59.915 77.7047 60.1238 77.3132L59.5757 77.2349C59.6279 77.2349 59.8758 76.987 60.3195 76.4911C60.7893 75.9691 61.0503 75.6167 61.1025 75.434L60.3587 75.5515C60.5675 75.421 60.7502 75.2644 60.9068 75.0817C61.2461 74.638 61.4418 74.1813 61.494 73.7115L60.9459 73.8289C61.5462 73.2808 61.8463 72.6805 61.8463 72.0281ZM57.0218 89.4886C57.0218 89.4886 57.0088 89.5016 56.9827 89.5277C56.9827 89.5016 56.9957 89.4886 57.0218 89.4886ZM76.4398 46.2679C75.7873 45.9025 74.9782 45.7198 74.0125 45.7198C73.4645 45.7198 72.9555 45.772 72.4857 45.8764C72.0159 45.9808 71.8071 46.0591 71.8593 46.1113C71.8593 46.1896 72.29 46.281 73.1513 46.3854C72.4727 46.3332 71.768 46.4637 71.0372 46.7769C69.8627 47.2989 69.0406 47.9905 68.5708 48.8518C68.884 48.9562 69.132 48.9562 69.3146 48.8518C69.2624 48.7735 68.9493 49.2041 68.3751 50.1437C67.7487 51.1877 67.3833 52.0881 67.2789 52.845L67.827 52.5709C67.8009 52.597 67.6182 53.1712 67.2789 54.2935C66.9135 55.4941 66.7178 56.264 66.6917 56.6033L67.3963 56.0161C66.8222 57.321 66.5612 58.6913 66.6134 60.1267L67.1614 59.6569C66.6395 61.0141 66.4176 62.3452 66.4959 63.6501C66.6264 63.5718 66.7439 63.4936 66.8483 63.4153L67.0048 63.2978C67.0831 63.2456 67.1484 63.2065 67.2006 63.1804C66.783 64.5636 66.6134 65.6468 66.6917 66.4297L67.3572 65.5293C66.8613 66.8865 66.6134 68.0348 66.6134 68.9744C66.6134 69.2354 66.6264 69.4703 66.6525 69.6791L67.3572 69.0527C66.9918 70.2794 66.8352 71.4017 66.8874 72.4196L67.5529 71.7932C67.3702 72.5761 67.1745 73.7376 66.9657 75.2774C67.044 75.1469 67.2267 74.912 67.5138 74.5728C67.5399 74.5467 67.5529 74.5336 67.5529 74.5336H67.5921C67.5921 74.5336 67.4877 74.8076 67.2789 75.3557C67.0962 75.9038 66.9657 76.4519 66.8874 77L67.7878 76.5302C67.6051 76.7651 67.3311 77.6003 66.9657 79.0358L67.7095 78.6443C67.5007 79.1924 67.2006 80.1058 66.8091 81.3847L67.4746 81.1107C67.2397 81.7631 66.7308 82.8332 65.9478 84.3209C65.2431 85.3649 63.9251 86.3697 61.9938 87.3354C60.0363 88.301 58.379 89.0188 57.0218 89.4886C58.8227 89.0971 60.0885 88.7708 60.8193 88.5098C63.377 87.7008 65.5172 86.6307 67.2397 85.2996C68.8579 83.7858 69.667 82.507 69.667 81.463C69.667 81.1237 69.6278 80.928 69.5495 80.8758L70.2151 81.8153C70.6588 80.8758 70.8806 79.9753 70.8806 79.1141C70.8806 78.9314 70.8676 78.7617 70.8415 78.6051L71.4287 79.1141C71.6375 78.566 71.7419 77.9657 71.7419 77.3132C71.7419 76.7651 71.6636 76.2301 71.507 75.7081C71.9768 75.8908 72.2639 76.1779 72.3683 76.5694C72.5249 76.1257 72.6032 75.6298 72.6032 75.0817C72.6032 74.5075 72.4857 74.0247 72.2508 73.6332L72.7598 73.9464C72.9686 72.3543 72.8381 71.2059 72.3683 70.5012L72.9947 70.8927C73.2035 69.7966 73.0208 68.6221 72.4466 67.3693C72.812 67.3693 73.073 67.5651 73.2296 67.9566C73.4384 66.756 73.1904 65.5032 72.4857 64.1982C72.9294 64.3809 73.2035 64.5506 73.3079 64.7072C73.4123 63.7415 73.0991 62.5931 72.3683 61.2621L73.0338 61.6927C73.086 61.5622 73.1121 61.3795 73.1121 61.1446C73.1121 60.2833 72.7728 59.1871 72.0942 57.8561C72.2769 58.0127 72.5379 58.2606 72.8772 58.5999C73.0338 57.7647 72.7728 56.6033 72.0942 55.1156L72.9555 55.6246C72.8511 54.7372 72.6293 53.6149 72.29 52.2577L72.9164 52.845C73.0469 52.1664 73.0077 51.3312 72.7989 50.3394L73.1904 50.5743C73.1904 49.7392 73.347 49.0997 73.6602 48.656L73.7776 49.0084C74.3779 48.382 75.4089 48.0688 76.8704 48.0688C78.0449 48.0688 79.4804 48.2776 81.1768 48.6952C80.2634 48.1471 78.6843 47.338 76.4398 46.2679ZM79.8458 61.4186C79.2455 61.3403 78.8409 61.262 78.6321 61.1838C78.6321 61.236 78.7496 61.4317 78.9845 61.771C78.6452 61.4578 78.1754 61.1185 77.5751 60.7531C77.6273 60.988 77.6795 61.1577 77.7317 61.2621C77.1836 60.9228 76.7399 60.7662 76.4006 60.7923L76.5181 61.1446C76.1527 60.988 75.6829 60.8184 75.1087 60.6357L75.3436 61.1838C74.8738 60.7923 74.3779 60.6226 73.8559 60.6748L74.0517 61.1055C73.5297 60.714 73.0208 60.5443 72.5249 60.5965L72.7206 61.1446C72.1725 60.8314 71.7549 60.7009 71.4678 60.7531L71.8202 61.3012C71.2982 60.9097 70.8415 60.714 70.45 60.714C70.3456 60.714 70.2412 60.727 70.1368 60.7531L70.4108 61.3012C69.9671 61.0402 69.4973 60.9489 69.0015 61.0272L69.3146 61.5361C68.6361 61.3273 68.1402 61.249 67.827 61.3012C67.9314 61.4056 68.0358 61.523 68.1402 61.6535C68.088 61.6535 68.0227 61.6405 67.9444 61.6144C67.6312 61.51 67.3441 61.4578 67.0831 61.4578L67.3572 62.1233C67.0962 61.8884 66.7047 61.8232 66.1827 61.9276C66.2871 62.0842 66.3915 62.2408 66.4959 62.3974C65.9217 62.3191 65.5041 62.3452 65.2431 62.4757L65.478 62.828C64.956 62.9324 64.4732 63.1021 64.0295 63.337C63.638 63.4414 62.9855 63.624 62.0721 63.885C61.5501 64.0677 60.9498 64.4853 60.2712 65.1378C60.2712 65.1117 60.5452 64.9943 61.0933 64.7855C61.798 64.5506 62.4505 64.4331 63.0508 64.4331C63.3118 64.4331 63.6641 64.4984 64.1078 64.6289C64.5776 64.7333 64.9299 64.7855 65.1648 64.7855C65.6085 64.7855 65.8826 64.6419 65.987 64.3548L65.7912 65.0987C66.2871 65.1509 66.6656 65.0595 66.9266 64.8246L66.8091 65.3727C67.2006 65.5293 67.5921 65.3858 67.9836 64.9421C67.9575 65.3075 67.8792 65.5685 67.7487 65.7251C68.1663 65.8555 68.5056 65.7381 68.7666 65.3727L68.6491 65.8033C69.2494 65.8816 69.667 65.7251 69.9019 65.3336L69.7844 65.8425C70.1759 65.9991 70.6066 65.8425 71.0764 65.3727C71.1025 65.6337 71.0372 65.8425 70.8806 65.9991C71.3243 66.1557 71.8071 65.9599 72.3291 65.4119C72.2508 65.7511 72.1856 65.973 72.1334 66.0774C72.5249 66.1557 72.9816 65.8947 73.5036 65.2944L73.3079 65.8425C73.6733 66.0513 74.1952 65.7772 74.8738 65.0204C74.7694 65.3075 74.6781 65.5293 74.5998 65.6859C74.9913 65.7642 75.4741 65.4771 76.0483 64.8246L75.8917 65.5685C76.1788 65.4119 76.6355 65.0595 77.2619 64.5114L77.1445 65.1378C77.3011 65.1378 77.6665 64.8377 78.2406 64.2374L78.2798 64.6289C78.4886 64.4201 78.7887 64.0677 79.1802 63.5718L79.2194 63.885C79.9241 63.1804 80.707 62.2669 81.5683 61.1446C80.8114 61.3795 80.2373 61.4708 79.8458 61.4186ZM73.1173 89.4886C73.1173 89.4886 73.1043 89.5016 73.0782 89.5277C73.0782 89.5016 73.0912 89.4886 73.1173 89.4886ZM92.5353 46.2679C91.8828 45.9025 91.0737 45.7198 90.108 45.7198C89.5599 45.7198 89.051 45.772 88.5812 45.8764C88.1114 45.9808 87.9026 46.0591 87.9548 46.1113C87.9548 46.1896 88.3855 46.281 89.2468 46.3854C88.5682 46.3332 87.8635 46.4637 87.1327 46.7769C85.9582 47.2989 85.1361 47.9905 84.6663 48.8518C84.9795 48.9562 85.2274 48.9562 85.4101 48.8518C85.3579 48.7735 85.0447 49.2041 84.4706 50.1437C83.8442 51.1877 83.4788 52.0881 83.3744 52.845L83.9225 52.5709C83.8964 52.597 83.7137 53.1712 83.3744 54.2935C83.009 55.4941 82.8132 56.264 82.7871 56.6033L83.4918 56.0161C82.9176 57.321 82.6566 58.6913 82.7088 60.1267L83.2569 59.6569C82.7349 61.0141 82.5131 62.3452 82.5914 63.6501C82.7219 63.5718 82.8393 63.4936 82.9437 63.4153L83.1003 63.2978C83.1786 63.2456 83.2439 63.2065 83.2961 63.1804C82.8785 64.5636 82.7088 65.6468 82.7871 66.4297L83.4527 65.5293C82.9568 66.8865 82.7088 68.0348 82.7088 68.9744C82.7088 69.2354 82.7219 69.4703 82.748 69.6791L83.4527 69.0527C83.0873 70.2794 82.9307 71.4017 82.9829 72.4196L83.6484 71.7932C83.4657 72.5761 83.27 73.7376 83.0612 75.2774C83.1395 75.1469 83.3222 74.912 83.6093 74.5728C83.6354 74.5467 83.6484 74.5336 83.6484 74.5336H83.6876C83.6876 74.5336 83.5832 74.8076 83.3744 75.3557C83.1917 75.9038 83.0612 76.4519 82.9829 77L83.8833 76.5302C83.7006 76.7651 83.4266 77.6003 83.0612 79.0358L83.805 78.6443C83.5962 79.1924 83.2961 80.1058 82.9046 81.3847L83.5701 81.1107C83.3352 81.7631 82.8263 82.8332 82.0433 84.3209C81.3386 85.3649 80.0206 86.3697 78.0892 87.3354C76.1318 88.301 74.4745 89.0188 73.1173 89.4886C74.9182 89.0971 76.184 88.7708 76.9148 88.5098C79.4725 87.7008 81.6127 86.6307 83.3352 85.2996C84.9534 83.7858 85.7625 82.507 85.7625 81.463C85.7625 81.1237 85.7233 80.928 85.645 80.8758L86.3106 81.8153C86.7543 80.8758 86.9761 79.9753 86.9761 79.1141C86.9761 78.9314 86.9631 78.7617 86.937 78.6051L87.5242 79.1141C87.733 78.566 87.8374 77.9657 87.8374 77.3132C87.8374 76.7651 87.7591 76.2301 87.6025 75.7081C88.0723 75.8908 88.3594 76.1779 88.4638 76.5694C88.6204 76.1257 88.6987 75.6298 88.6987 75.0817C88.6987 74.5075 88.5812 74.0247 88.3463 73.6332L88.8553 73.9464C89.0641 72.3543 88.9336 71.2059 88.4638 70.5012L89.0902 70.8927C89.299 69.7966 89.1163 68.6221 88.5421 67.3693C88.9075 67.3693 89.1685 67.5651 89.3251 67.9566C89.5338 66.756 89.2859 65.5032 88.5812 64.1982C89.0249 64.3809 89.299 64.5506 89.4033 64.7072C89.5077 63.7415 89.1946 62.5931 88.4638 61.2621L89.1293 61.6927C89.1815 61.5622 89.2076 61.3795 89.2076 61.1446C89.2076 60.2833 88.8683 59.1871 88.1897 57.8561C88.3724 58.0127 88.6334 58.2606 88.9727 58.5999C89.1293 57.7647 88.8683 56.6033 88.1897 55.1156L89.051 55.6246C88.9466 54.7372 88.7248 53.6149 88.3855 52.2577L89.0119 52.845C89.1424 52.1664 89.1032 51.3312 88.8944 50.3394L89.2859 50.5743C89.2859 49.7392 89.4425 49.0997 89.7557 48.656L89.8731 49.0084C90.4734 48.382 91.5044 48.0688 92.9659 48.0688C94.1404 48.0688 95.5759 48.2776 97.2723 48.6952C96.3588 48.1471 94.7798 47.338 92.5353 46.2679ZM95.9413 61.4186C95.341 61.3403 94.9364 61.262 94.7276 61.1838C94.7276 61.236 94.8451 61.4317 95.08 61.771C94.7407 61.4578 94.2709 61.1185 93.6706 60.7531C93.7228 60.988 93.775 61.1577 93.8272 61.2621C93.2791 60.9228 92.8354 60.7662 92.4961 60.7923L92.6136 61.1446C92.2482 60.988 91.7784 60.8184 91.2042 60.6357L91.4391 61.1838C90.9693 60.7923 90.4734 60.6226 89.9514 60.6748L90.1472 61.1055C89.6252 60.714 89.1163 60.5443 88.6204 60.5965L88.8161 61.1446C88.268 60.8314 87.8504 60.7009 87.5633 60.7531L87.9157 61.3012C87.3937 60.9097 86.937 60.714 86.5455 60.714C86.4411 60.714 86.3367 60.727 86.2323 60.7531L86.5063 61.3012C86.0626 61.0402 85.5928 60.9489 85.0969 61.0272L85.4101 61.5361C84.7316 61.3273 84.2357 61.249 83.9225 61.3012C84.0269 61.4056 84.1313 61.523 84.2357 61.6535C84.1835 61.6535 84.1182 61.6405 84.0399 61.6144C83.7267 61.51 83.4396 61.4578 83.1786 61.4578L83.4527 62.1233C83.1917 61.8884 82.8002 61.8232 82.2782 61.9276C82.3826 62.0842 82.487 62.2408 82.5914 62.3974C82.0172 62.3191 81.5996 62.3452 81.3386 62.4757L81.5735 62.828C81.0515 62.9324 80.5687 63.1021 80.125 63.337C79.7335 63.4414 79.081 63.624 78.1675 63.885C77.6456 64.0677 77.0453 64.4853 76.3667 65.1378C76.3667 65.1117 76.6407 64.9943 77.1888 64.7855C77.8935 64.5506 78.546 64.4331 79.1463 64.4331C79.4073 64.4331 79.7596 64.4984 80.2033 64.6289C80.6731 64.7333 81.0254 64.7855 81.2603 64.7855C81.704 64.7855 81.9781 64.6419 82.0825 64.3548L81.8867 65.0987C82.3826 65.1509 82.761 65.0595 83.022 64.8246L82.9046 65.3727C83.2961 65.5293 83.6876 65.3858 84.0791 64.9421C84.053 65.3075 83.9747 65.5685 83.8442 65.7251C84.2618 65.8555 84.6011 65.7381 84.862 65.3727L84.7446 65.8033C85.3449 65.8816 85.7625 65.7251 85.9974 65.3336L85.8799 65.8425C86.2714 65.9991 86.7021 65.8425 87.1718 65.3727C87.1979 65.6337 87.1327 65.8425 86.9761 65.9991C87.4198 66.1557 87.9026 65.9599 88.4246 65.4119C88.3463 65.7511 88.2811 65.973 88.2289 66.0774C88.6204 66.1557 89.0771 65.8947 89.5991 65.2944L89.4033 65.8425C89.7687 66.0513 90.2907 65.7772 90.9693 65.0204C90.8649 65.3075 90.7736 65.5293 90.6953 65.6859C91.0868 65.7642 91.5696 65.4771 92.1438 64.8246L91.9872 65.5685C92.2743 65.4119 92.731 65.0595 93.3574 64.5114L93.24 65.1378C93.3966 65.1378 93.762 64.8377 94.3361 64.2374L94.3753 64.6289C94.5841 64.4201 94.8842 64.0677 95.2757 63.5718L95.3149 63.885C96.0196 63.1804 96.8025 62.2669 97.6638 61.1446C96.9069 61.3795 96.3327 61.4708 95.9413 61.4186Z" fill="#81AA66"/>
</svg>
